#File generated from solving marker data for model walk1.trc
name solved_motion
datacolumns 107
datarows 5
range 0.5000000000 0.5330000000
units unknown
enforce_loops no
enforce_constraints no
endheader

time	lower_torso_TX	lower_torso_TY	lower_torso_TZ	lower_torso_RX	lower_torso_RY	lower_torso_RZ	lumbar_roll	lumbar_yaw	lumbar_pitch	neck_roll	neck_yaw	neck_pitch	arm_add_r	arm_rot_r	arm_flex_r	elbow_flex_r	pro_sup_r	wrist_dev_r	wrist_flex_r	arm_add_l	arm_rot_l	arm_flex_l	elbow_flex_l	pro_sup_l	wrist_dev_l	wrist_flex_l	hip_add_r	hip_rot_r	hip_flex_r	knee_flex_r	ankle_flex_r	subt_angle_r	toe_angle_r	hip_add_l	hip_rot_l	hip_flex_l	knee_flex_l	ankle_flex_l	subt_angle_l	toe_angle_l	R.Shoulder_px	R.Shoulder_py	R.Shoulder_pz	R.Scapula_px	R.Scapula_py	R.Scapula_pz	L.Shoulder_px	L.Shoulder_py	L.Shoulder_pz	R.ASIS_px	R.ASIS_py	R.ASIS_pz	V.Sacral_px	V.Sacral_py	V.Sacral_pz	L.ASIS_px	L.ASIS_py	L.ASIS_pz	R.Elbow_px	R.Elbow_py	R.Elbow_pz	R.Wrist_px	R.Wrist_py	R.Wrist_pz	L.Elbow_px	L.Elbow_py	L.Elbow_pz	L.Wrist_px	L.Wrist_py	L.Wrist_pz	R.Thigh_px	R.Thigh_py	R.Thigh_pz	R.Knee_px	R.Knee_py	R.Knee_pz	R.Shank_px	R.Shank_py	R.Shank_pz	R.Ankle_px	R.Ankle_py	R.Ankle_pz	R.Heel_px	R.Heel_py	R.Heel_pz	R.Toe_px	R.Toe_py	R.Toe_pz	L.Thigh_px	L.Thigh_py	L.Thigh_pz	L.Knee_px	L.Knee_py	L.Knee_pz	L.Shank_px	L.Shank_py	L.Shank_pz	L.Ankle_px	L.Ankle_py	L.Ankle_pz	L.Heel_px	L.Heel_py	L.Heel_pz	L.Toe_px	L.Toe_py	L.Toe_pz	
0.5000000000	-1.0315749999	0.2901871715	0.7064079589	87.8957839806	-2.6358805823	-5.9422301481	5.5168204326	2.5579359931	-16.1580009335	0.0000000000	0.0000000000	0.0000000000	-41.8169454195	-10.0000000000	12.9660144316	36.8224850282	68.5234121611	0.0000000000	0.0000000000	-28.8742355847	10.0000000000	13.2685102044	46.7359189535	69.9785053762	0.0000000000	0.0000000000	6.9297128111	13.3723022172	52.3719913629	94.0445383825	29.9991407409	6.5463920611	0.0000000000	-2.4653124391	17.7200477484	50.2949523942	108.6479945512	7.7158251718	17.1165508600	-0.0010000000	-0.9868759800	0.0401011700	1.1102242400	-1.1524768100	0.1830480200	1.1260617700	-1.0006666900	0.4921404100	1.1655865500	-1.0039503800	0.1489830200	0.7478431400	-1.2268704800	0.3047489600	0.7999198600	-0.9952354700	0.4272991900	0.7385031700	-1.0858869600	-0.1084260600	0.8979081400	-0.9009807700	-0.2189602400	0.7735671400	-1.0460786100	0.6363411300	0.9217026400	-0.8593225100	0.6576086400	0.7489990200	-0.9260047000	0.0739899600	0.4387201200	-0.8451998900	0.1617356400	0.3325671700	-0.9517620200	0.0622919200	0.1897589300	-1.1461945800	0.0860266500	0.0721788600	-1.2136135300	0.1062817100	0.0874151800	-1.0585058600	0.1548126200	0.0427132800	-0.8809974400	0.5137044700	0.4032205500	-0.8507504900	0.4353157000	0.3367280600	-1.0730760500	0.5784736300	0.2141965900	-1.2095631100	0.5446405000	0.1677209200	-1.2721854200	0.5226048600	0.2152487300	-1.1729890100	0.4871969900	0.0748783400	
0.5080000000	-1.0259384225	0.2888029019	0.7081274987	87.6534072345	-3.0471209813	-5.2836162929	5.4960592533	3.9521208650	-17.3190627873	0.0000000000	0.0000000000	0.0000000000	-42.0360102200	-10.0000000000	11.3434008222	43.3978156349	50.0000000000	0.0000000000	0.0000000000	-28.3507231063	10.0000000000	14.3523657598	44.9297320080	70.0000000000	0.0000000000	0.0000000000	7.2161575202	13.0763851647	51.2872711125	93.9191903721	30.0000000000	9.5551974086	0.0000000000	-3.0950795078	17.4333126319	50.5261555350	108.7829785513	9.0528138353	20.0000000000	-0.0020000000	-0.9813082300	0.0370079900	1.1122902800	-1.1456068100	0.1812245300	1.1266695600	-0.9927771000	0.4928605000	1.1671038800	-0.9992966300	0.1473634900	0.7486327500	-1.2210227100	0.3051713600	0.8006163300	-0.9887586700	0.4265260000	0.7398976400	-1.0768648700	-0.1108955700	0.8984080800	-0.8895051900	-0.2189290600	0.7751455100	-1.0410202600	0.6354416500	0.9225589600	-0.8570993700	0.6598103000	0.7453151200	-0.9211926900	0.0752640500	0.4372915000	-0.8432856400	0.1605752600	0.3306687300	-0.9503424100	0.0626247400	0.1896517500	-1.1433819600	0.0883128900	0.0717860000	-1.2108803700	0.1072973900	0.0875473100	-1.0585058600	0.1548126200	0.0427132800	-0.8722966900	0.5121021700	0.4060650600	-0.8416228000	0.4341706500	0.3405300000	-1.0584843800	0.5753581500	0.2160711700	-1.1991727300	0.5442450000	0.1687877500	-1.2585827600	0.5189240700	0.2118884400	-1.1559218800	0.4848756400	0.0744437700	
0.5170000000	-1.0194041745	0.2882339925	0.7082432383	87.5547016457	-3.3111812070	-5.4485384714	5.5277323859	4.5984224632	-17.0132399295	0.0000000000	0.0000000000	0.0000000000	-42.5364739560	-10.0000000000	11.3170154162	43.7480574300	50.0000000000	0.0000000000	0.0000000000	-27.7847039873	10.0000000000	14.2470904398	43.8632574094	70.0000000000	0.0000000000	0.0000000000	7.1267755945	12.9842905653	50.8849124050	93.9513273524	30.0000000000	10.5397981676	0.0000000000	-2.9823816473	17.3038247712	51.7049064912	108.6971284752	9.1392594974	20.0000000000	-0.0030000000	-0.9737075800	0.0386534000	1.1107531700	-1.1396951900	0.1803716700	1.1272434100	-0.9903700600	0.4907271700	1.1692069100	-0.9931492300	0.1474494000	0.7485784900	-1.2149377400	0.3046028400	0.8009585600	-0.9813718900	0.4252959900	0.7397585400	-1.0677586700	-0.1125861200	0.8991557000	-0.8782573200	-0.2191711000	0.7777144800	-1.0369992700	0.6339545300	0.9245722000	-0.8569434800	0.6612699600	0.7435591400	-0.9181659500	0.0751812200	0.4357068800	-0.8425340600	0.1576071200	0.3285259400	-0.9520914900	0.0599732500	0.1891008800	-1.1432970000	0.0869833400	0.0728553800	-1.2109406700	0.1069945400	0.0894093900	-1.0585058600	0.1548126200	0.0427132800	-0.8592576300	0.5089156200	0.4103295900	-0.8304909100	0.4321211200	0.3443986200	-1.0421799300	0.5735886200	0.2158245400	-1.1845787400	0.5419838300	0.1668820300	-1.2430946000	0.5160139800	0.2076243300	-1.1385466300	0.4816755100	0.0735010400	
0.5250000000	-1.0127292424	0.2869195095	0.7082700430	87.2431784798	-3.6623832980	-5.7669054024	5.6529322663	4.7261464549	-16.7567640639	0.0000000000	0.0000000000	0.0000000000	-42.6862991976	-10.0000000000	12.9374572627	42.4246698927	50.0000000000	0.0000000000	0.0000000000	-27.5844914184	10.0000000000	13.1543508288	43.5164372987	70.0000000000	0.0000000000	0.0000000000	7.6956256483	12.9519893764	50.6280230368	94.0639106406	30.0000000000	9.5476794071	0.0000000000	-3.4091410435	17.0212482702	53.2156538184	108.5973139922	9.6521289920	19.8789245713	-0.0040000000	-0.9695289300	0.0354854000	1.1128252000	-1.1328404500	0.1803189500	1.1276444100	-0.9806983000	0.4905372300	1.1681179200	-0.9875397900	0.1467591100	0.7485236200	-1.2087043500	0.3047776800	0.8018480800	-0.9731561900	0.4247198500	0.7392388300	-1.0544482400	-0.1128332800	0.8987150300	-0.8671798700	-0.2191343500	0.7807289400	-1.0325992400	0.6336256100	0.9252238800	-0.8578451500	0.6618353300	0.7406632100	-0.9153247100	0.0742663300	0.4342941300	-0.8407459700	0.1568043100	0.3282472800	-0.9480918000	0.0603621200	0.1880617100	-1.1421131600	0.0876801100	0.0742928600	-1.2139986600	0.1072982700	0.0923059000	-1.0582121600	0.1545947400	0.0429037900	-0.8496249400	0.5080952800	0.4137641300	-0.8150689100	0.4295543800	0.3489784500	-1.0299522700	0.5700532800	0.2189568800	-1.1669627700	0.5369335900	0.1624706400	-1.2292891800	0.5129005100	0.2048120600	-1.1184729000	0.4788029500	0.0721886900	
0.5330000000	-1.0069898102	0.2863851612	0.7090745773	87.3780742672	-4.0643074853	-5.7799755698	5.5102434029	4.9746709170	-16.8622895485	0.0000000000	0.0000000000	0.0000000000	-43.2091993615	-10.0000000000	13.7904870141	42.4395620526	50.0000000000	0.0000000000	0.0000000000	-27.7993207085	10.0000000000	12.8227776586	42.0037377552	69.9999312560	0.0000000000	0.0000000000	7.6566155684	13.2010175691	50.2146933724	94.1362500351	30.0000000000	9.7178119667	0.0000000000	-2.7714550874	16.8818543815	54.0218064396	108.3571818148	10.4096502940	20.0000000000	-0.0050000000	-0.9647327900	0.0322054300	1.1142031300	-1.1264683800	0.1794578100	1.1284228500	-0.9725576800	0.4888408500	1.1679836400	-0.9834789400	0.1463158000	0.7494415300	-1.2032396200	0.3052301900	0.8030082400	-0.9656876800	0.4243938000	0.7400191700	-1.0452369400	-0.1138792900	0.8988526000	-0.8551577100	-0.2201183000	0.7832323000	-1.0280155000	0.6332645300	0.9264658800	-0.8571063800	0.6686654100	0.7402740500	-0.9129016700	0.0734863000	0.4335726000	-0.8387934600	0.1552758800	0.3266468200	-0.9450269800	0.0597572600	0.1865417600	-1.1419060100	0.0882589600	0.0760227300	-1.2140969200	0.1070858900	0.0941903300	-1.0568765900	0.1546163800	0.0434460300	-0.8385852100	0.5044044200	0.4185540500	-0.8034851100	0.4237247300	0.3527291900	-1.0149470800	0.5679090000	0.2190798000	-1.1502094700	0.5335394900	0.1591277500	-1.2145813000	0.5130755000	0.2004977000	-1.1022479200	0.4735065000	0.0732198200	
